# xmcd
#
# Track frame offsets: 
#        150
#        16432
#        31644
#        74176
#        102496
#        137434
#
# Disc length: 2316 seconds
#
# Revision: 0
# Processed by: cddbd v1.5.2PL0 Copyright (c) Steve Scherf et al.
# Submitted via: ExactAudioCopy v0.95b4
#
DISCID=4d090a06
DTITLE=Ralph Fridge - Man on Mars
DYEAR=1900
DGENRE=
TTITLE0=Sven-R-G and Bass-T Remix Cut
TTITLE1=Trance Radio Edit
TTITLE2=Martin Eyerer Remix
TTITLE3=Sven-R-G and Bass-T Remix
TTITLE4=Trance Mix
TTITLE5=DJ Shah Remix
EXTD=
EXTT0=
EXTT1=
EXTT2=
EXTT3=
EXTT4=
EXTT5=
PLAYORDER=
